<?xml version="1.0" encoding="iso-8859-1"?>
<!-- Generator: Adobe Illustrator 19.0.0, SVG Export Plug-In . SVG Version: 6.00 Build 0)  -->
<svg version="1.1" id="Layer_1" xmlns="http://www.w3.org/2000/svg" xmlns:xlink="http://www.w3.org/1999/xlink" x="0px" y="0px"
	 viewBox="0 0 512.004 512.004" style="enable-background:new 0 0 512.004 512.004;" xml:space="preserve">
<g>
	<g>
		<path d="M437.034,436.999c1.364-1.364,2.706-2.747,4.036-4.139c0.578-0.604,1.147-1.214,1.718-1.823
			c0.682-0.729,1.362-1.459,2.035-2.195c0.786-0.857,1.566-1.717,2.338-2.582c0.226-0.254,0.449-0.51,0.674-0.765
			c89.005-100.526,85.411-254.284-10.816-350.512c-99.979-99.979-262.075-99.979-362.033,0.002
			c-95.971,95.971-99.799,249.169-11.518,349.71c0.562,0.642,1.123,1.284,1.692,1.92c0.546,0.61,1.097,1.217,1.65,1.823
			c0.969,1.064,1.948,2.119,2.936,3.167c0.313,0.331,0.622,0.664,0.937,0.994c1.417,1.487,2.846,2.964,4.301,4.419
			c99.979,99.979,262.052,99.979,362.031,0c0.001-0.001,0.002-0.002,0.002-0.002c0.001-0.001,0.001-0.001,0.002-0.002
			C437.023,437.01,437.028,437.005,437.034,436.999z M105.156,105.154c83.297-83.317,218.375-83.317,301.691,0
			c63.861,63.861,78.77,158.13,44.735,236.183H60.422C26.386,263.283,41.296,169.015,105.156,105.154z M411.712,401.804
			c-1.594,1.704-3.212,3.39-4.867,5.044c-83.319,83.314-218.393,83.312-301.687-0.001c-0.263-0.263-0.515-0.532-0.776-0.796
			c-1.311-1.324-2.604-2.663-3.877-4.018c-0.461-0.491-0.915-0.985-1.371-1.479c-1.381-1.499-2.747-3.01-4.081-4.545
			c-0.1-0.114-0.202-0.228-0.302-0.342c-3.271-3.781-6.402-7.669-9.39-11.662h341.273c-4.373,5.845-9.061,11.462-14.039,16.847
			C412.301,401.169,412.008,401.488,411.712,401.804z"/>
	</g>
</g>
<g>
</g>
<g>
</g>
<g>
</g>
<g>
</g>
<g>
</g>
<g>
</g>
<g>
</g>
<g>
</g>
<g>
</g>
<g>
</g>
<g>
</g>
<g>
</g>
<g>
</g>
<g>
</g>
<g>
</g>
</svg>
